<?xml version="1.0" standalone="no"?>
<!DOCTYPE svg PUBLIC "-//W3C//DTD SVG 20010904//EN"
 "http://www.w3.org/TR/2001/REC-SVG-20010904/DTD/svg10.dtd">
<svg version="1.0" xmlns="http://www.w3.org/2000/svg"
 width="1536.000000pt" height="1536.000000pt" viewBox="0 0 1536.000000 1536.000000"
 preserveAspectRatio="xMidYMid meet">
<metadata>
Created by potrace 1.14, written by Peter Selinger 2001-2017
</metadata>
<g transform="translate(0.000000,1536.000000) scale(0.100000,-0.100000)"
fill="#000000" stroke="none">
<path d="M4709 15356 c-2 -2 -125 -7 -274 -11 -148 -4 -297 -8 -330 -10 -33
-2 -116 -6 -185 -10 -69 -3 -143 -8 -165 -10 -22 -2 -76 -7 -120 -10 -44 -3
-98 -7 -120 -10 -22 -2 -67 -7 -100 -10 -33 -4 -73 -8 -90 -10 -16 -3 -64 -9
-105 -14 -124 -17 -149 -21 -305 -52 -483 -98 -804 -230 -1214 -501 -214 -142
-369 -270 -590 -489 -79 -78 -192 -202 -232 -254 -13 -16 -26 -32 -29 -35 -12
-10 -178 -237 -212 -290 -75 -117 -108 -171 -108 -175 0 -3 -15 -28 -33 -57
-154 -244 -306 -690 -371 -1093 -12 -71 -35 -234 -41 -285 -3 -30 -8 -71 -10
-90 -3 -19 -7 -64 -10 -100 -3 -36 -7 -87 -10 -115 -13 -139 -17 -201 -30
-470 -17 -344 -20 -946 -20 -3575 0 -2609 4 -3321 20 -3555 2 -33 6 -121 10
-195 3 -74 8 -153 10 -175 2 -22 6 -76 10 -120 10 -131 21 -241 40 -385 3 -19
7 -55 11 -80 12 -95 56 -320 84 -435 105 -426 275 -784 553 -1165 178 -243
361 -439 632 -675 17 -15 89 -70 160 -124 470 -351 887 -533 1456 -635 46 -9
95 -18 109 -20 14 -3 48 -7 75 -11 28 -3 64 -8 80 -10 52 -8 98 -14 160 -20
33 -3 78 -8 100 -10 132 -13 190 -18 410 -30 186 -11 231 -13 520 -22 357 -10
6100 -11 6460 0 322 9 427 14 700 32 82 5 233 19 335 30 30 4 75 8 100 11 25
3 56 7 70 9 14 2 45 7 70 10 702 96 1218 318 1761 756 200 161 431 393 570
570 18 24 36 46 39 49 8 7 98 133 154 214 182 265 326 561 412 844 31 101 67
242 80 307 2 11 10 54 19 95 8 41 17 91 20 110 3 19 7 46 10 60 2 14 7 45 10
70 3 25 8 52 10 60 2 8 6 47 10 85 3 39 8 84 10 100 2 17 7 56 10 87 3 32 7
82 10 110 8 90 22 307 30 478 16 322 20 1079 20 3610 0 2583 -4 3291 -20 3525
-2 33 -6 121 -10 195 -3 74 -8 153 -10 175 -2 22 -6 76 -10 120 -10 131 -21
241 -40 385 -3 19 -7 55 -11 80 -12 95 -56 320 -84 435 -105 426 -275 784
-553 1165 -151 206 -363 439 -543 597 -32 29 -72 64 -89 78 -16 15 -88 70
-160 124 -470 351 -889 534 -1456 635 -46 9 -93 17 -104 20 -11 2 -49 7 -85
11 -36 4 -67 8 -70 10 -3 1 -36 6 -73 10 -37 3 -76 8 -85 10 -9 1 -60 6 -112
10 -52 4 -97 8 -100 10 -3 2 -61 6 -130 10 -69 3 -143 8 -165 10 -22 2 -116 7
-210 11 -93 4 -208 9 -255 11 -97 5 -6266 14 -6271 9z"/>
</g>
</svg>
